# xmcd
#
# Track frame offsets:
#   150
#   11013
#   24231
#   35094
#   48089
#   61474
#   70959
#   81168
#   98593
#   116353
#   127119
#   138962
#   159662
#   170010
#   181056
#   190345
#   202950
#   215740
#   227622
#   238833
#   251420
#   264589
#
# Disc length: 3671 seconds
#
# Revision: 0
# Processed by: cddbd v1.5.2PL0 Copyright (c) Steve Scherf et al.
# Submitted via: uFREEDB 1.6.0
#
DISCID=320e5516
DTITLE=The Golden Gate Quartet - Spirituals and Gospels
DYEAR=1900
DGENRE=Blues
TTITLE0=Eternal light
TTITLE1=Glory Hallelujah
TTITLE2=Hush hush
TTITLE3=I want two wings
TTITLE4=Wade in the water
TTITLE5=Let us cheers the weavy traveller
TTITLE6=Don't talk about it
TTITLE7=Do you know him
TTITLE8=I will be home again
TTITLE9=Good morning
TTITLE10=Over there
TTITLE11=Oh happy day
TTITLE12=Roll Jordan roll
TTITLE13=Daniel saw the stone
TTITLE14=Ezekiel saw the wheel
TTITLE15=Woman at the well
TTITLE16=Nobody knows the trouble I've seen
TTITLE17=My Lord what a morning
TTITLE18=When was Jesus born
TTITLE19=Steal away and pray
TTITLE20=Judgement day
TTITLE21=Rock my soul
EXTD=
EXTT0=
EXTT1=
EXTT2=
EXTT3=
EXTT4=
EXTT5=
EXTT6=
EXTT7=
EXTT8=
EXTT9=
EXTT10=
EXTT11=
EXTT12=
EXTT13=
EXTT14=
EXTT15=
EXTT16=
EXTT17=
EXTT18=
EXTT19=
EXTT20=
EXTT21=
PLAYORDER=
